<svg xmlns="http://www.w3.org/2000/svg" viewBox="0 0 32 32" fill="none">
  <!-- Background circle -->
  <circle cx="16" cy="16" r="15" fill="#16a34a" stroke="#15803d" stroke-width="2"/>
  
  <!-- Hobbit house roof -->
  <path d="M8 18 L16 10 L24 18 L24 22 L8 22 Z" fill="#dc2626"/>
  
  <!-- Hobbit house door -->
  <rect x="14" y="18" width="4" height="4" fill="#92400e"/>
  <circle cx="15.5" cy="20" r="0.5" fill="#fbbf24"/>
  
  <!-- Hobbit house windows -->
  <circle cx="11" cy="16" r="1.5" fill="#fbbf24"/>
  <circle cx="21" cy="16" r="1.5" fill="#fbbf24"/>
  
  <!-- Smoke from chimney -->
  <path d="M15 8 Q16 7 17 8 Q18 9 17 10 Q16 11 15 10 Q14 9 15 8" fill="#6b7280" opacity="0.6"/>
  <path d="M16 7 Q17 6 18 7 Q19 8 18 9 Q17 10 16 9 Q15 8 16 7" fill="#6b7280" opacity="0.4"/>
  
  <!-- Grass at bottom -->
  <path d="M6 24 L26 24 L26 26 L6 26 Z" fill="#22c55e"/>
</svg> 