<svg xmlns="http://www.w3.org/2000/svg" viewBox="0 0 32 32" fill="none">
  <!-- Background circle with gradient effect -->
  <defs>
    <linearGradient id="bgGradient" x1="0%" y1="0%" x2="100%" y2="100%">
      <stop offset="0%" style="stop-color:#16a34a;stop-opacity:1" />
      <stop offset="100%" style="stop-color:#15803d;stop-opacity:1" />
    </linearGradient>
    <linearGradient id="roofGradient" x1="0%" y1="0%" x2="100%" y2="0%">
      <stop offset="0%" style="stop-color:#dc2626;stop-opacity:1" />
      <stop offset="100%" style="stop-color:#b91c1c;stop-opacity:1" />
    </linearGradient>
  </defs>
  
  <!-- Background circle -->
  <circle cx="16" cy="16" r="15" fill="url(#bgGradient)" stroke="#15803d" stroke-width="2"/>
  
  <!-- Hobbit house roof -->
  <path d="M8 18 L16 10 L24 18 L24 22 L8 22 Z" fill="url(#roofGradient)"/>
  
  <!-- Hobbit house door -->
  <rect x="14" y="18" width="4" height="4" fill="#92400e"/>
  <circle cx="15.5" cy="20" r="0.5" fill="#fbbf24"/>
  
  <!-- Hobbit house windows with glow -->
  <circle cx="11" cy="16" r="1.5" fill="#fbbf24" opacity="0.9"/>
  <circle cx="21" cy="16" r="1.5" fill="#fbbf24" opacity="0.9"/>
  <circle cx="11" cy="16" r="0.8" fill="#ffffff" opacity="0.6"/>
  <circle cx="21" cy="16" r="0.8" fill="#ffffff" opacity="0.6"/>
  
  <!-- Smoke from chimney -->
  <path d="M15 8 Q16 7 17 8 Q18 9 17 10 Q16 11 15 10 Q14 9 15 8" fill="#6b7280" opacity="0.6"/>
  <path d="M16 7 Q17 6 18 7 Q19 8 18 9 Q17 10 16 9 Q15 8 16 7" fill="#6b7280" opacity="0.4"/>
  
  <!-- Grass at bottom -->
  <path d="M6 24 L26 24 L26 26 L6 26 Z" fill="#22c55e"/>
  
  <!-- Small decorative elements -->
  <circle cx="8" cy="25" r="0.5" fill="#16a34a"/>
  <circle cx="24" cy="25" r="0.5" fill="#16a34a"/>
</svg> 